<svg width="1024" height="1024" viewBox="0 0 1024 1024" xmlns="http://www.w3.org/2000/svg">
  <defs>
    <linearGradient id="shell" x1="0" y1="0" x2="1" y2="1">
      <stop offset="0%" stop-color="#07111f"/>
      <stop offset="54%" stop-color="#10203a"/>
      <stop offset="100%" stop-color="#223250"/>
    </linearGradient>
    <linearGradient id="card" x1="0" y1="0" x2="0" y2="1">
      <stop offset="0%" stop-color="#182944"/>
      <stop offset="100%" stop-color="#111d33"/>
    </linearGradient>
    <linearGradient id="check" x1="0" y1="0" x2="1" y2="1">
      <stop offset="0%" stop-color="#35e782"/>
      <stop offset="100%" stop-color="#16b85d"/>
    </linearGradient>
    <filter id="softShadow" x="-20%" y="-20%" width="140%" height="140%">
      <feDropShadow dx="0" dy="18" stdDeviation="22" flood-color="#07111f" flood-opacity="0.22"/>
    </filter>
  </defs>

  <rect x="48" y="48" width="928" height="928" rx="210" fill="#ffffff"/>
  <rect x="92" y="92" width="840" height="840" rx="184" fill="url(#shell)"/>
  <rect x="164" y="164" width="696" height="696" rx="150" fill="#7fb0ff" opacity="0.12"/>

  <g filter="url(#softShadow)">
    <rect x="260" y="190" width="496" height="536" rx="104" fill="url(#card)"/>

    <circle cx="364" cy="328" r="31" fill="#35e782"/>
    <rect x="436" y="300" width="214" height="56" rx="28" fill="#c7d3e5"/>

    <circle cx="364" cy="454" r="31" fill="#35e782"/>
    <rect x="436" y="426" width="252" height="56" rx="28" fill="#c7d3e5" opacity="0.92"/>

    <circle cx="364" cy="580" r="31" fill="#50627d"/>
    <rect x="436" y="552" width="184" height="56" rx="28" fill="#7c8aa2" opacity="0.72"/>
  </g>

  <circle cx="720" cy="706" r="150" fill="#20c96a"/>
  <circle cx="720" cy="706" r="124" fill="url(#check)"/>
  <path d="M654 706 L704 756 L788 660" fill="none" stroke="#ffffff" stroke-width="44" stroke-linecap="round" stroke-linejoin="round"/>
</svg>
