<svg width="1024" height="1024" viewBox="0 0 1024 1024" xmlns="http://www.w3.org/2000/svg">
  <defs>
    <linearGradient id="bg" x1="0" y1="0" x2="1" y2="1">
      <stop offset="0%" stop-color="#0b1220"/>
      <stop offset="55%" stop-color="#162238"/>
      <stop offset="100%" stop-color="#25314a"/>
    </linearGradient>
    <linearGradient id="panel" x1="0" y1="0" x2="0" y2="1">
      <stop offset="0%" stop-color="#111a2b"/>
      <stop offset="100%" stop-color="#0a1120"/>
    </linearGradient>
    <linearGradient id="cell" x1="0" y1="0" x2="1" y2="1">
      <stop offset="0%" stop-color="#202d46"/>
      <stop offset="100%" stop-color="#162033"/>
    </linearGradient>
    <linearGradient id="hi" x1="0" y1="0" x2="1" y2="1">
      <stop offset="0%" stop-color="#ffd14b"/>
      <stop offset="100%" stop-color="#f7a900"/>
    </linearGradient>
  </defs>
  <rect x="48" y="48" width="928" height="928" rx="210" fill="url(#bg)"/>
  <rect x="110" y="110" width="804" height="804" rx="170" fill="#7fb0ff" opacity="0.18"/>
  <rect x="180" y="170" width="664" height="664" rx="120" fill="url(#panel)"/>
  <rect x="230" y="230" width="564" height="90" rx="45" fill="#2d3a55"/>
  <circle cx="308" cy="274" r="16" fill="rgba(255,255,255,0.16)"/>
  <circle cx="512" cy="274" r="16" fill="rgba(255,255,255,0.16)"/>
  <circle cx="716" cy="274" r="16" fill="rgba(255,255,255,0.16)"/>

  <rect x="246" y="362" width="140" height="140" rx="32" fill="url(#cell)"/>
  <rect x="416" y="362" width="140" height="140" rx="32" fill="url(#cell)"/>
  <rect x="586" y="362" width="140" height="140" rx="32" fill="url(#cell)"/>
  <rect x="246" y="532" width="140" height="140" rx="32" fill="url(#cell)"/>
  <rect x="416" y="532" width="140" height="140" rx="32" fill="url(#hi)"/>
  <rect x="586" y="532" width="140" height="140" rx="32" fill="url(#cell)"/>
  <rect x="246" y="702" width="140" height="140" rx="32" fill="url(#cell)"/>
  <rect x="416" y="702" width="140" height="140" rx="32" fill="url(#cell)"/>
  <rect x="586" y="702" width="140" height="140" rx="32" fill="url(#cell)"/>

  <text x="486" y="605" text-anchor="middle" dominant-baseline="middle" font-size="72" font-weight="700" fill="#0b1220" font-family="SF Pro Display, PingFang SC, sans-serif">27</text>

  <circle cx="760" cy="760" r="138" fill="#27d36f"/>
  <circle cx="760" cy="760" r="118" fill="#34e37c"/>
  <path d="M706 760 L744 798 L822 715" fill="none" stroke="#ffffff" stroke-width="42" stroke-linecap="round" stroke-linejoin="round"/>
</svg>
